<svg width="70" height="65" viewBox="0 0 70 65" fill="none" xmlns="http://www.w3.org/2000/svg">
<path d="M5.3823 57L0.64075 39.059H4.15206L7.38144 53.3349L11.1747 39.059H14.7885L18.4792 53.3349L21.7086 39.059H25.2456L20.3758 57H16.4801L12.9175 43.698L9.25243 57H5.3823ZM32.2946 57.3076C31.0644 57.3076 29.9537 57.0256 28.9627 56.4618C27.9888 55.8979 27.2113 55.1205 26.6304 54.1294C26.0665 53.1213 25.7846 51.9594 25.7846 50.6438C25.7846 49.3281 26.0751 48.1747 26.656 47.1837C27.2369 46.1756 28.0144 45.3896 28.9883 44.8257C29.9794 44.2619 31.09 43.98 32.3202 43.98C33.5334 43.98 34.6269 44.2619 35.6009 44.8257C36.5919 45.3896 37.3693 46.1756 37.9332 47.1837C38.5141 48.1747 38.8046 49.3281 38.8046 50.6438C38.8046 51.9594 38.5141 53.1213 37.9332 54.1294C37.3693 55.1205 36.5919 55.8979 35.6009 56.4618C34.6098 57.0256 33.5078 57.3076 32.2946 57.3076ZM32.2946 54.4626C33.1489 54.4626 33.8922 54.1465 34.5244 53.5143C35.1566 52.865 35.4727 51.9082 35.4727 50.6438C35.4727 49.3793 35.1566 48.431 34.5244 47.7988C33.8922 47.1495 33.1575 46.8249 32.3202 46.8249C31.4488 46.8249 30.697 47.1495 30.0648 47.7988C29.4497 48.431 29.1421 49.3793 29.1421 50.6438C29.1421 51.9082 29.4497 52.865 30.0648 53.5143C30.697 54.1465 31.4403 54.4626 32.2946 54.4626ZM41.7379 57V44.2875H44.634L44.8903 46.4404C45.2833 45.6886 45.8472 45.0906 46.5819 44.6463C47.3337 44.2021 48.2137 43.98 49.2218 43.98C50.7938 43.98 52.0155 44.4755 52.8869 45.4665C53.7583 46.4575 54.194 47.9099 54.194 49.8236V57H50.9134V50.1312C50.9134 49.0376 50.6913 48.2004 50.247 47.6194C49.8028 47.0385 49.1108 46.748 48.171 46.748C47.2483 46.748 46.4879 47.0726 45.8899 47.7219C45.309 48.3712 45.0185 49.2768 45.0185 50.4387V57H41.7379ZM62.5853 57.3076C61.4575 57.3076 60.4665 57.1281 59.6122 56.7693C58.7578 56.3934 58.0744 55.8808 57.5618 55.2315C57.0492 54.5822 56.7416 53.8304 56.6391 52.9761H59.9454C60.0479 53.4716 60.3213 53.8988 60.7655 54.2576C61.2269 54.5993 61.8164 54.7702 62.534 54.7702C63.2516 54.7702 63.7728 54.625 64.0974 54.3345C64.4392 54.044 64.61 53.7108 64.61 53.3349C64.61 52.7881 64.3708 52.4208 63.8924 52.2328C63.414 52.0278 62.7476 51.8313 61.8932 51.6433C61.3465 51.5237 60.7912 51.3785 60.2273 51.2076C59.6634 51.0368 59.1423 50.8232 58.6639 50.5669C58.2025 50.2935 57.8266 49.9517 57.5361 49.5417C57.2457 49.1145 57.1004 48.5934 57.1004 47.9782C57.1004 46.8505 57.5447 45.9022 58.4332 45.1333C59.3388 44.3644 60.6032 43.98 62.2264 43.98C63.7301 43.98 64.9261 44.3302 65.8146 45.0308C66.7202 45.7313 67.2585 46.6967 67.4293 47.927H64.3281C64.1401 46.9872 63.431 46.5173 62.2008 46.5173C61.5857 46.5173 61.1073 46.6369 60.7655 46.8762C60.4409 47.1154 60.2786 47.4144 60.2786 47.7732C60.2786 48.1491 60.5263 48.4481 61.0218 48.6702C61.5173 48.8924 62.1752 49.0974 62.9953 49.2854C63.8838 49.4904 64.6955 49.7211 65.4302 49.9774C66.182 50.2166 66.78 50.584 67.2243 51.0795C67.6685 51.5579 67.8907 52.2499 67.8907 53.1555C67.9078 53.9415 67.7027 54.6506 67.2755 55.2828C66.8484 55.915 66.2333 56.4105 65.4302 56.7693C64.6271 57.1281 63.6788 57.3076 62.5853 57.3076Z" fill="#06152B"/>
<path d="M34.6445 4.18053L28.7946 1V13.6653L34.6445 15.7099L40.5228 13.6653V1L34.6445 4.18053Z" fill="#3A36DB" stroke="#3A36DB" stroke-width="0.0567951"/>
<path d="M34.6166 14.6032L14 4.29492V17.0454L34.6166 27.8933L56 17.0454V4.29492L34.6166 14.6032Z" fill="#3A36DB" stroke="#3A36DB" stroke-width="0.0567951"/>
<path d="M34.9862 8.83687L22.0085 2.39062V14.5448L34.9862 20.9342L47.5095 14.1472V2.39062L34.9862 8.83687Z" fill="#3A36DB" stroke="#3A36DB" stroke-width="0.0567951"/>
</svg>
