<svg width="64" height="64" viewBox="0 0 64 64" fill="none" xmlns="http://www.w3.org/2000/svg">
<path opacity="0.1" d="M0.466797 31.7921C0.466797 14.2899 14.6551 0.101562 32.1573 0.101562V0.101562C49.6595 0.101562 63.8479 14.2899 63.8479 31.7921V31.7921C63.8479 49.2943 49.6595 63.4826 32.1573 63.4826V63.4826C14.6551 63.4826 0.466797 49.2943 0.466797 31.7921V31.7921Z" fill="#99B2C6"/>
<path fill-rule="evenodd" clip-rule="evenodd" d="M35.7859 21.7541C36.451 21.7541 37.1152 21.8481 37.7466 22.0604C41.6376 23.328 43.0396 27.6063 41.8684 31.3457C41.2043 33.2567 40.1185 35.0007 38.6964 36.4257C36.6608 38.4011 34.427 40.1547 32.0225 41.6652L31.7589 41.8247L31.4848 41.6547C29.0718 40.1547 26.8254 38.4011 24.7708 36.4152C23.3582 34.9902 22.2714 33.2567 21.5967 31.3457C20.4055 27.6063 21.8075 23.328 25.7406 22.0382C26.0464 21.9326 26.3616 21.8587 26.6778 21.8175H26.8043C27.1005 21.7741 27.3946 21.7541 27.6898 21.7541H27.8058C28.4699 21.7741 29.1129 21.8903 29.736 22.1027H29.7982C29.8403 22.1227 29.8719 22.1449 29.893 22.165C30.126 22.24 30.3463 22.3245 30.5572 22.4407L30.9577 22.6203C31.0545 22.672 31.1632 22.7511 31.2571 22.8194C31.3166 22.8627 31.3702 22.9016 31.411 22.9266C31.4282 22.9368 31.4457 22.947 31.4634 22.9573C31.5537 23.0102 31.6479 23.0653 31.7273 23.1263C32.8985 22.2294 34.3206 21.7435 35.7859 21.7541ZM38.5897 29.3593C39.0219 29.3477 39.3909 29.0001 39.4225 28.5554V28.4297C39.4541 26.9497 38.5591 25.6092 37.1982 25.0916C36.766 24.9427 36.2916 25.1761 36.1335 25.6198C35.9859 26.0635 36.2178 26.5494 36.6606 26.7068C37.3363 26.9603 37.7885 27.6269 37.7885 28.3653V28.398C37.7685 28.6399 37.8412 28.8734 37.9888 29.0529C38.1364 29.2325 38.3578 29.3371 38.5897 29.3593Z" fill="#3A36DB"/>
</svg>
