<svg width="19" height="18" viewBox="0 0 19 18" fill="none" xmlns="http://www.w3.org/2000/svg">
<path fill-rule="evenodd" clip-rule="evenodd" d="M7.24057 8.43076C6.85624 8.43076 6.55234 8.73006 6.55234 9.10858C6.55234 9.4783 6.85624 9.78641 7.24057 9.78641H12.6034V13.9942C12.6034 16.1509 10.8247 17.9115 8.62596 17.9115H4.27316C2.08335 17.9115 0.304688 16.1597 0.304688 14.003V4.22296C0.304688 2.05744 2.09229 0.305664 4.28209 0.305664H8.64383C10.8247 0.305664 12.6034 2.05744 12.6034 4.21416V8.43076H7.24057ZM15.7926 6.06295L18.3577 8.62461C18.4895 8.75666 18.5598 8.92391 18.5598 9.10877C18.5598 9.28483 18.4895 9.46089 18.3577 9.58413L15.7926 12.1458C15.6608 12.2778 15.4851 12.3483 15.3182 12.3483C15.1425 12.3483 14.9668 12.2778 14.835 12.1458C14.5715 11.8817 14.5715 11.4504 14.835 11.1863L16.2406 9.7866H12.6037V8.43095H16.2406L14.835 7.03127C14.5715 6.76718 14.5715 6.33584 14.835 6.07175C15.0986 5.79886 15.529 5.79886 15.7926 6.06295Z" fill="#06152B"/>
</svg>
