<svg width="32" height="32" viewBox="0 0 32 32" fill="none" xmlns="http://www.w3.org/2000/svg">
<path opacity="0.05" d="M16 32C24.8366 32 32 24.8366 32 16C32 7.16344 24.8366 0 16 0C7.16344 0 0 7.16344 0 16C0 24.8366 7.16344 32 16 32Z" fill="#FF69B4"/>
<path fill-rule="evenodd" clip-rule="evenodd" d="M20.6039 11.8016C20.82 11.8016 21 11.9811 21 12.2094V12.4205C21 12.6433 20.82 12.8283 20.6039 12.8283H11.3966C11.1799 12.8283 11 12.6433 11 12.4205V12.2094C11 11.9811 11.1799 11.8016 11.3966 11.8016H13.0164C13.3455 11.8016 13.6318 11.5678 13.7058 11.2378L13.7907 10.8589C13.9225 10.3428 14.3564 10 14.8529 10H17.147C17.6382 10 18.0769 10.3428 18.2039 10.8317L18.2947 11.2372C18.3681 11.5678 18.6545 11.8016 18.9841 11.8016H20.6039ZM19.781 19.5192C19.9501 17.9431 20.2462 14.1988 20.2462 14.161C20.257 14.0465 20.2197 13.9382 20.1457 13.851C20.0662 13.7693 19.9657 13.721 19.855 13.721H12.1492C12.0379 13.721 11.932 13.7693 11.8585 13.851C11.7839 13.9382 11.7472 14.0465 11.7526 14.161C11.7536 14.1679 11.7642 14.2998 11.782 14.5203C11.8609 15.4999 12.0806 18.2282 12.2226 19.5192C12.3231 20.4703 12.9472 21.0681 13.8511 21.0898C14.5486 21.1059 15.2673 21.1114 16.0021 21.1114C16.6942 21.1114 17.3971 21.1059 18.1163 21.0898C19.0515 21.0737 19.6751 20.4864 19.781 19.5192Z" fill="#FF69B4"/>
</svg>
