<svg width="10" height="12" viewBox="0 0 10 12" fill="none" xmlns="http://www.w3.org/2000/svg">
<path fill-rule="evenodd" clip-rule="evenodd" d="M9.60392 1.80164C9.82004 1.80164 9.99996 1.98108 9.99996 2.20941V2.42052C9.99996 2.6433 9.82004 2.82829 9.60392 2.82829H0.396584C0.179921 2.82829 0 2.6433 0 2.42052V2.20941C0 1.98108 0.179921 1.80164 0.396584 1.80164H2.01642C2.34546 1.80164 2.63182 1.56776 2.70585 1.23776L2.79067 0.858877C2.92251 0.342773 3.35637 0 3.85291 0H6.14705C6.63818 0 7.07691 0.342773 7.20388 0.831655L7.29465 1.2372C7.36813 1.56776 7.6545 1.80164 7.98408 1.80164H9.60392ZM8.78096 9.51924C8.95007 7.94315 9.24616 4.19876 9.24616 4.16098C9.25697 4.04654 9.21968 3.93821 9.14566 3.85098C9.06624 3.76932 8.96574 3.72099 8.85498 3.72099H1.14915C1.03785 3.72099 0.931952 3.76932 0.858471 3.85098C0.783909 3.93821 0.747168 4.04654 0.752571 4.16098C0.753564 4.16792 0.764188 4.29982 0.78195 4.52032C0.860856 5.4999 1.08063 8.22821 1.22264 9.51924C1.32313 10.4703 1.94718 11.0681 2.85111 11.0898C3.54865 11.1059 4.26725 11.1114 5.00207 11.1114C5.6942 11.1114 6.39713 11.1059 7.11628 11.0898C8.05155 11.0737 8.67506 10.4864 8.78096 9.51924Z" fill="#FF69B4"/>
</svg>
