<svg width="134" height="134" viewBox="0 0 134 134" fill="none" xmlns="http://www.w3.org/2000/svg">
<rect width="134" height="134" rx="67" fill="#F1F4FA"/>
<path opacity="0.7" fill-rule="evenodd" clip-rule="evenodd" d="M74.8733 58.5849C74.93 58.684 75.0292 58.7547 75.1567 58.7547C78.5567 58.7547 81.3333 61.5283 81.3333 64.9245V73.3302C81.3333 76.7264 78.5567 79.5 75.1567 79.5H59.1767C55.7625 79.5 53 76.7264 53 73.3302V64.9245C53 61.5283 55.7625 58.7547 59.1767 58.7547C59.29 58.7547 59.4033 58.6981 59.4458 58.5849L59.5308 58.4151C59.5797 58.3123 59.6298 58.2067 59.6807 58.0995C60.0431 57.3361 60.4441 56.4916 60.6925 55.9953C61.3442 54.7217 62.4492 54.0142 63.8233 54H70.4958C71.87 54.0142 72.9892 54.7217 73.6408 55.9953C73.864 56.4411 74.2039 57.1592 74.5316 57.8513C74.5992 57.994 74.6663 58.1357 74.7317 58.2736L74.8733 58.5849ZM73.8391 64.0188C73.8391 64.7264 74.4058 65.2924 75.1141 65.2924C75.8225 65.2924 76.4033 64.7264 76.4033 64.0188C76.4033 63.3113 75.8225 62.7311 75.1141 62.7311C74.4058 62.7311 73.8391 63.3113 73.8391 64.0188ZM64.7157 66.2122C65.3815 65.5471 66.2457 65.1934 67.1665 65.1934C68.0873 65.1934 68.9515 65.5471 69.6032 66.1981C70.2548 66.849 70.609 67.7122 70.609 68.632C70.5948 70.5283 69.0648 72.0707 67.1665 72.0707C66.2457 72.0707 65.3815 71.7169 64.7298 71.066C64.0782 70.4151 63.724 69.5518 63.724 68.632V68.6179C63.7098 67.7264 64.064 66.8632 64.7157 66.2122ZM71.0906 72.566C70.0848 73.5707 68.6965 74.1934 67.1665 74.1934C65.679 74.1934 64.2906 73.6132 63.2281 72.566C62.1798 71.5047 61.599 70.1179 61.599 68.6321C61.5848 67.1604 62.1656 65.7736 63.214 64.7122C64.2765 63.6509 65.679 63.0707 67.1665 63.0707C68.654 63.0707 70.0565 63.6509 71.1048 64.6981C72.1531 65.7594 72.734 67.1604 72.734 68.6321C72.7198 70.1745 72.0965 71.5613 71.0906 72.566Z" fill="#06152B"/>
</svg>
