<svg width="81" height="14" viewBox="0 0 81 14" fill="none" xmlns="http://www.w3.org/2000/svg">
<path d="M12.0147 8.70988C11.8283 8.89482 11.7426 9.16227 11.7851 9.42457L12.4251 13.0496C12.479 13.3568 12.3523 13.6678 12.1011 13.8453C11.8549 14.0295 11.5273 14.0516 11.2588 13.9043L8.07037 12.2023C7.9595 12.1419 7.8364 12.1094 7.71042 12.1058H7.51532C7.44765 12.1161 7.38142 12.1382 7.32095 12.1721L4.13179 13.8822C3.97413 13.9632 3.79559 13.992 3.62066 13.9632C3.19448 13.8807 2.91012 13.4651 2.97995 13.0268L3.62066 9.40173C3.66313 9.13722 3.57746 8.86829 3.39101 8.68041L0.791446 6.10163C0.574035 5.88575 0.498446 5.56156 0.597792 5.26905C0.694259 4.97728 0.940465 4.76435 1.23778 4.71646L4.81569 4.18523C5.08782 4.15649 5.32682 3.98703 5.44921 3.73652L7.02579 0.428317C7.06323 0.354638 7.11146 0.286853 7.16977 0.229383L7.23456 0.177807C7.2684 0.139494 7.30727 0.107812 7.35047 0.0820239L7.42894 0.0525521L7.55132 0.000976562H7.8544C8.12508 0.0297115 8.36337 0.19549 8.48791 0.443053L10.0854 3.73652C10.2006 3.97745 10.4244 4.14471 10.6829 4.18523L14.2608 4.71646C14.5632 4.76066 14.8158 4.97434 14.9159 5.26905C15.0102 5.56451 14.9289 5.8887 14.7071 6.10163L12.0147 8.70988Z" fill="#FF69B4"/>
<path d="M28.3349 8.70988C28.1485 8.89482 28.0628 9.16227 28.1053 9.42457L28.7453 13.0496C28.7993 13.3568 28.6726 13.6678 28.4213 13.8453C28.1751 14.0295 27.8476 14.0516 27.579 13.9043L24.3906 12.2023C24.2798 12.1419 24.1567 12.1094 24.0307 12.1058H23.8356C23.7679 12.1161 23.7017 12.1382 23.6412 12.1721L20.4521 13.8822C20.2944 13.9632 20.1159 13.992 19.9409 13.9632C19.5148 13.8807 19.2304 13.4651 19.3002 13.0268L19.9409 9.40173C19.9834 9.13722 19.8978 8.86829 19.7113 8.68041L17.1118 6.10163C16.8943 5.88575 16.8188 5.56156 16.9181 5.26905C17.0146 4.97728 17.2608 4.76435 17.5581 4.71646L21.136 4.18523C21.4081 4.15649 21.6471 3.98703 21.7695 3.73652L23.3461 0.428317C23.3835 0.354638 23.4317 0.286853 23.49 0.229383L23.5548 0.177807C23.5887 0.139494 23.6275 0.107812 23.6707 0.0820239L23.7492 0.0525521L23.8716 0.000976562H24.1747C24.4453 0.0297115 24.6836 0.19549 24.8082 0.443053L26.4056 3.73652C26.5208 3.97745 26.7447 4.14471 27.0031 4.18523L30.581 4.71646C30.8834 4.76066 31.136 4.97434 31.2361 5.26905C31.3304 5.56451 31.2491 5.8887 31.0273 6.10163L28.3349 8.70988Z" fill="#FF69B4"/>
<path d="M44.6541 8.70988C44.4676 8.89482 44.382 9.16227 44.4244 9.42457L45.0644 13.0496C45.1184 13.3568 44.9917 13.6678 44.7405 13.8453C44.4943 14.0295 44.1667 14.0516 43.8982 13.9043L40.7098 12.2023C40.599 12.1419 40.4759 12.1094 40.3499 12.1058H40.1548C40.0871 12.1161 40.0209 12.1382 39.9604 12.1721L36.7714 13.8822C36.6137 13.9632 36.4352 13.992 36.2602 13.9632C35.8341 13.8807 35.5497 13.4651 35.6195 13.0268L36.2602 9.40173C36.3027 9.13722 36.217 8.86829 36.0306 8.68041L33.4311 6.10163C33.2137 5.88575 33.1381 5.56156 33.2374 5.26905C33.3339 4.97728 33.5801 4.76435 33.8774 4.71646L37.4552 4.18523C37.7274 4.15649 37.9664 3.98703 38.0887 3.73652L39.6653 0.428317C39.7027 0.354638 39.751 0.286853 39.8093 0.229383L39.8741 0.177807C39.9079 0.139494 39.9468 0.107812 39.99 0.0820239L40.0684 0.0525521L40.1908 0.000976562H40.4939C40.7646 0.0297115 41.0028 0.19549 41.1274 0.443053L42.7248 3.73652C42.84 3.97745 43.0639 4.14471 43.3223 4.18523L46.9001 4.71646C47.2025 4.76066 47.4552 4.97434 47.5552 5.26905C47.6495 5.56451 47.5682 5.8887 47.3465 6.10163L44.6541 8.70988Z" fill="#FF69B4"/>
<path opacity="0.4" d="M60.9736 8.70988C60.7872 8.89482 60.7015 9.16227 60.744 9.42457L61.3839 13.0496C61.4379 13.3568 61.3112 13.6678 61.06 13.8453C60.8138 14.0295 60.4862 14.0516 60.2177 13.9043L57.0293 12.2023C56.9184 12.1419 56.7953 12.1094 56.6693 12.1058H56.4743C56.4066 12.1161 56.3404 12.1382 56.2799 12.1721L53.0907 13.8822C52.9331 13.9632 52.7546 13.992 52.5796 13.9632C52.1534 13.8807 51.8691 13.4651 51.9389 13.0268L52.5796 9.40173C52.6221 9.13722 52.5364 8.86829 52.35 8.68041L49.7504 6.10163C49.533 5.88575 49.4574 5.56156 49.5568 5.26905C49.6532 4.97728 49.8994 4.76435 50.1968 4.71646L53.7746 4.18523C54.0468 4.15649 54.2858 3.98703 54.4082 3.73652L55.9847 0.428317C56.0222 0.354638 56.0704 0.286853 56.1287 0.229383L56.1935 0.177807C56.2273 0.139494 56.2662 0.107812 56.3094 0.0820239L56.3879 0.0525521L56.5103 0.000976562H56.8133C57.084 0.0297115 57.3223 0.19549 57.4468 0.443053L59.0443 3.73652C59.1595 3.97745 59.3834 4.14471 59.6418 4.18523L63.2197 4.71646C63.522 4.76066 63.7747 4.97434 63.8748 5.26905C63.9691 5.56451 63.8877 5.8887 63.666 6.10163L60.9736 8.70988Z" fill="#FF69B4"/>
<path opacity="0.4" d="M77.2929 8.70988C77.1065 8.89482 77.0208 9.16227 77.0633 9.42457L77.7033 13.0496C77.7573 13.3568 77.6306 13.6678 77.3793 13.8453C77.1331 14.0295 76.8056 14.0516 76.537 13.9043L73.3486 12.2023C73.2378 12.1419 73.1147 12.1094 72.9887 12.1058H72.7936C72.7259 12.1161 72.6597 12.1382 72.5992 12.1721L69.4101 13.8822C69.2524 13.9632 69.0739 13.992 68.899 13.9632C68.4728 13.8807 68.1884 13.4651 68.2582 13.0268L68.899 9.40173C68.9414 9.13722 68.8558 8.86829 68.6693 8.68041L66.0698 6.10163C65.8524 5.88575 65.7768 5.56156 65.8761 5.26905C65.9726 4.97728 66.2188 4.76435 66.5161 4.71646L70.094 4.18523C70.3661 4.15649 70.6051 3.98703 70.7275 3.73652L72.3041 0.428317C72.3415 0.354638 72.3897 0.286853 72.448 0.229383L72.5128 0.177807C72.5467 0.139494 72.5855 0.107812 72.6287 0.0820239L72.7072 0.0525521L72.8296 0.000976562H73.1327C73.4033 0.0297115 73.6416 0.19549 73.7662 0.443053L75.3636 3.73652C75.4788 3.97745 75.7027 4.14471 75.9611 4.18523L79.539 4.71646C79.8414 4.76066 80.0941 4.97434 80.1941 5.26905C80.2884 5.56451 80.2071 5.8887 79.9854 6.10163L77.2929 8.70988Z" fill="#FF69B4"/>
</svg>
