<svg width="7" height="7" viewBox="0 0 7 7" fill="none" xmlns="http://www.w3.org/2000/svg">
<g opacity="0.2">
<path d="M2.64548 6.02716C2.6149 5.99731 2.48419 5.88463 2.37666 5.77966C1.70041 5.16428 0.593536 3.55892 0.255675 2.71867C0.201385 2.59107 0.0864807 2.26845 0.0791016 2.09608C0.0791016 1.93092 0.117052 1.77347 0.194006 1.62322C0.301531 1.43593 0.470725 1.28569 0.67049 1.20336C0.809113 1.15036 1.22393 1.06804 1.23131 1.06804C1.68513 0.985709 2.42252 0.94043 3.23739 0.94043C4.01379 0.94043 4.72113 0.985709 5.18181 1.05311C5.18918 1.06083 5.70467 1.14316 5.88125 1.2332C6.20382 1.39837 6.40411 1.72098 6.40411 2.06624V2.09608C6.39621 2.32094 6.19592 2.7938 6.18854 2.7938C5.85015 3.58876 4.79756 5.15707 4.09812 5.78738C4.09812 5.78738 3.91838 5.9649 3.80612 6.04208C3.64483 6.16248 3.44506 6.22217 3.2453 6.22217C3.02234 6.22217 2.81467 6.15476 2.64548 6.02716" fill="#06152B"/>
</g>
</svg>
