<svg width="64" height="64" viewBox="0 0 64 64" fill="none" xmlns="http://www.w3.org/2000/svg">
<rect opacity="0.1" x="0.0673828" y="0.101562" width="63.3811" height="63.3811" rx="31.6905" fill="#FF69B4"/>
<path fill-rule="evenodd" clip-rule="evenodd" d="M35.1869 26.5122C35.2204 26.4374 35.2361 26.3558 35.2328 26.2738H35.2604C35.1425 23.455 32.8199 21.2305 29.9947 21.2305C27.1696 21.2305 24.847 23.455 24.7291 26.2738C24.7152 26.3527 24.7152 26.4334 24.7291 26.5122H26.2808C26.2947 26.4334 26.2947 26.3527 26.2808 26.2738C26.2808 24.2483 27.9251 22.6062 29.9534 22.6062C31.9818 22.6062 33.6261 24.2483 33.6261 26.2738C33.6271 26.3554 33.6426 26.4361 33.672 26.5122H35.1869ZM38.5751 29.8081L39.3856 36.3519C39.9819 40.6183 37.5875 42.3575 34.3733 42.3575H25.6342C22.4107 42.3575 19.9417 41.1564 20.6125 36.3519L21.4324 29.8081C21.8517 27.4059 23.2957 26.5122 24.6467 26.5122H35.3515C36.6838 26.5122 38.0813 27.4731 38.5751 29.8081ZM26.9287 31.951C26.4141 31.951 25.997 31.5208 25.997 30.9901C25.997 30.4594 26.4141 30.0292 26.9287 30.0292C27.4432 30.0292 27.8603 30.4594 27.8603 30.9901C27.8603 31.5208 27.4432 31.951 26.9287 31.951ZM32.0997 30.9901C32.0997 31.5208 32.5168 31.951 33.0314 31.951C33.5459 31.951 33.963 31.5208 33.963 30.9901C33.963 30.4594 33.5459 30.0292 33.0314 30.0292C32.5168 30.0292 32.0997 30.4594 32.0997 30.9901Z" fill="#FF69B4"/>
</svg>
