<svg width="64" height="64" viewBox="0 0 64 64" fill="none" xmlns="http://www.w3.org/2000/svg">
<rect opacity="0.1" x="0.592773" y="0.101562" width="63.3811" height="63.3811" rx="31.6905" fill="#99B2C6"/>
<path fill-rule="evenodd" clip-rule="evenodd" d="M28.4718 22.8356C27.7652 22.8356 27.164 23.3277 26.9952 23.9909H32.6696C32.5008 23.3277 31.8996 22.8356 31.193 22.8356H28.4718ZM34.2726 23.9903H36.3609C38.5757 23.9903 40.3793 25.8196 40.3793 28.066C40.3793 28.066 40.316 29.0169 40.2949 30.3412C40.2928 30.4461 40.2422 30.5488 40.1588 30.6108C39.6515 30.9863 39.1875 31.2965 39.1453 31.3179C37.3945 32.4946 35.36 33.3226 33.1926 33.7344C33.0512 33.7622 32.912 33.6884 32.8403 33.5622C32.2328 32.5074 31.0979 31.8207 29.8323 31.8207C28.5751 31.8207 27.4297 32.4999 26.8043 33.5558C26.7315 33.6798 26.5944 33.7515 26.4541 33.7248C24.3046 33.3119 22.2701 32.485 20.5299 31.3286L19.5174 30.6226C19.433 30.5691 19.3803 30.4728 19.3803 30.3659C19.3486 29.8203 19.2959 28.066 19.2959 28.066C19.2959 25.8196 21.0994 23.9903 23.3143 23.9903H25.392C25.5924 22.4392 26.8897 21.2305 28.4718 21.2305H31.1929C32.7749 21.2305 34.0722 22.4392 34.2726 23.9903ZM40.0201 32.6537L39.9779 32.675C37.8474 34.1085 35.2844 35.0605 32.5949 35.4563C32.2152 35.5098 31.8355 35.2638 31.7301 34.8787C31.498 34.0015 30.7492 33.4238 29.8527 33.4238H29.8421H29.821C28.9245 33.4238 28.1757 34.0015 27.9437 34.8787C27.8382 35.2638 27.4585 35.5098 27.0788 35.4563C24.3893 35.0605 21.8263 34.1085 19.6958 32.675C19.6853 32.6643 19.5798 32.6002 19.4954 32.6537C19.4005 32.7071 19.4005 32.8355 19.4005 32.8355L19.4743 38.2911C19.4743 40.5375 21.2673 42.356 23.4822 42.356H36.1809C38.3958 42.356 40.1888 40.5375 40.1888 38.2911L40.2732 32.8355C40.2732 32.8355 40.2732 32.7071 40.1783 32.6537C40.1255 32.6216 40.0623 32.6323 40.0201 32.6537ZM30.6226 37.1359C30.6226 37.5852 30.2745 37.9382 29.8315 37.9382C29.3991 37.9382 29.0405 37.5852 29.0405 37.1359V35.756C29.0405 35.3174 29.3991 34.9537 29.8315 34.9537C30.2745 34.9537 30.6226 35.3174 30.6226 35.756V37.1359Z" fill="#3A36DB"/>
</svg>
