<svg width="65" height="64" viewBox="0 0 65 64" fill="none" xmlns="http://www.w3.org/2000/svg">
<rect opacity="0.2" x="0.709961" y="0.101562" width="63.3811" height="63.3811" rx="31.6905" fill="#03A89E"/>
<path fill-rule="evenodd" clip-rule="evenodd" d="M34.6379 24.4825C34.97 24.4871 35.303 24.4916 35.6371 24.4951C39.2268 24.4951 41.8442 27.0596 41.8442 30.6011V35.1502C41.8442 38.6917 39.2268 41.2562 35.6371 41.2562C34.1991 41.2868 32.7611 41.297 31.3128 41.297C29.8645 41.297 28.4058 41.2868 26.9678 41.2562C23.3781 41.2562 20.7607 38.6917 20.7607 35.1502V30.6011C20.7607 27.0596 23.3781 24.4951 26.9782 24.4951C28.3334 24.4747 29.7196 24.4544 31.1266 24.4544V24.2813C31.1266 23.5791 30.5369 23.0092 29.8334 23.0092H28.8093C27.6403 23.0092 26.6885 22.073 26.6885 20.9332C26.6885 20.5159 27.0403 20.1699 27.4644 20.1699C27.8989 20.1699 28.2403 20.5159 28.2403 20.9332C28.2403 21.2385 28.4989 21.4827 28.8093 21.4827H29.8334C31.3956 21.4929 32.668 22.7447 32.6784 24.2712V24.4645C33.3305 24.4645 33.9827 24.4735 34.6379 24.4825ZM30.0918 33.6329H29.0056V34.7116C29.0056 35.1288 28.6539 35.4749 28.2297 35.4749C27.7952 35.4749 27.4538 35.1288 27.4538 34.7116V33.6329H26.3572C25.9331 33.6329 25.5814 33.297 25.5814 32.8696C25.5814 32.4524 25.9331 32.1063 26.3572 32.1063H27.4538V31.0378C27.4538 30.6205 27.7952 30.2745 28.2297 30.2745C28.6539 30.2745 29.0056 30.6205 29.0056 31.0378V32.1063H30.0918C30.516 32.1063 30.8677 32.4524 30.8677 32.8696C30.8677 33.297 30.516 33.6329 30.0918 33.6329ZM34.489 31.9124H34.5924C35.0166 31.9124 35.3683 31.5766 35.3683 31.1492C35.3683 30.7319 35.0166 30.3859 34.5924 30.3859H34.489C34.0545 30.3859 33.7131 30.7319 33.7131 31.1492C33.7131 31.5766 34.0545 31.9124 34.489 31.9124ZM36.2576 35.4137H36.3611C36.7852 35.4137 37.1369 35.0778 37.1369 34.6504C37.1369 34.2332 36.7852 33.8872 36.3611 33.8872H36.2576C35.8221 33.8872 35.4817 34.2332 35.4817 34.6504C35.4817 35.0778 35.8221 35.4137 36.2576 35.4137Z" fill="#03A89E"/>
</svg>
