<svg width="26" height="23" viewBox="0 0 26 23" fill="none" xmlns="http://www.w3.org/2000/svg">
<path d="M0.796133 17.5052C0.903195 17.6049 1.02873 17.6722 1.16082 17.7076C1.46011 17.7878 1.79278 17.704 2.01856 17.4615L7.96241 11.0759C8.28222 10.7323 8.79777 10.641 9.21596 10.8541L13.6329 13.1033C14.6264 13.6091 15.8219 13.4755 16.679 12.7631L22.2675 8.11807L21.8476 12.8721C21.8101 13.2969 22.0862 13.677 22.4843 13.7836C22.5322 13.7964 22.582 13.8053 22.6332 13.8098C23.109 13.8519 23.5288 13.5002 23.5708 13.0243L24.1843 6.07712C24.2045 5.84862 24.1331 5.62145 23.9857 5.4456C23.8384 5.26972 23.6273 5.15957 23.3988 5.13944L16.7173 4.54945C16.2415 4.50742 15.8217 4.85912 15.7797 5.33493C15.7377 5.8108 16.0895 6.23051 16.5652 6.27262L21.2804 6.68902L15.5732 11.4327C15.2481 11.703 14.7947 11.7537 14.4178 11.5618L10.0009 9.31258C8.89852 8.75115 7.53931 8.99147 6.69622 9.89722L0.752355 16.2829C0.426901 16.6325 0.446462 17.1798 0.796133 17.5052Z" fill="#3A36DB"/>
</svg>
